# xmcd CD database file
#
# Track frame offsets:
#	150
#	22054
#	45003
#	66873
#	113924
#	134401
#	166953
#
# Disc length: 2506 seconds
#
# Revision: 0
# Processed by: cddbd v1.5.1PL2 Copyright (c) Steve Scherf et al.
# Submitted via: CDex 1.51
#
DISCID=5709c807
DTITLE=Various Artist - Eastern Odyssey, Disk 2
DYEAR=2003
DGENRE=New Age
TTITLE0=Rags
TTITLE1=Dadash
TTITLE2=Incantation
TTITLE3=In the Garden of Souls
TTITLE4=Through the Shadows
TTITLE5=Seven Heaven
TTITLE6=Maya
EXTD=YEAR: 2003
EXTT0=
EXTT1=
EXTT2=
EXTT3=
EXTT4=
EXTT5=
EXTT6=
PLAYORDER=
